<svg width="13" height="14" fill="none" xmlns="http://www.w3.org/2000/svg"><path fill-rule="evenodd" clip-rule="evenodd" d="M12.126 10.383c-.4-.473-1.048-1.16-1.603-1.225-.337-.039-.725.225-1.108.473-.074.035-.65.358-.72.378-.37.1-1.158.128-1.635-.281C6.6 9.332 5.875 8.6 5.29 7.93c-.56-.69-1.147-1.52-1.447-2.03-.314-.528-.088-1.226.106-1.533.035-.056.465-.471.56-.568l.015.016c.355-.281.727-.567.77-.876.068-.515-.49-1.264-.89-1.738C4.005.725 3.387-.106 2.544.01c-.317.044-.59.149-.86.299L1.677.302l-.045.033-.023.011.002.003c-.154.113-.597.424-.647.466-.547.458-1.37 1.536-.733 3.474.472 1.44 1.478 3.133 2.85 4.844l-.008.006c.067.083.136.157.206.237.066.082.13.163.197.244l.01-.006c1.455 1.65 2.98 2.97 4.373 3.748 1.875 1.047 3.208.575 3.824.2.058-.036.498-.358.647-.465l.004.004.017-.018.04-.029-.006-.007a2.12 2.12 0 00.532-.702c.327-.728-.392-1.487-.791-1.962z" fill="#D9D9D9"/></svg>