<svg width="23" height="22" fill="none" xmlns="http://www.w3.org/2000/svg"><path d="M16.469 1h-9.98A4.995 4.995 0 001.5 6v10c0 2.761 2.234 5 4.99 5h9.979a4.995 4.995 0 004.99-5V6c0-2.761-2.234-5-4.99-5z" stroke="#DADADA" stroke-width="2" stroke-linecap="round" stroke-linejoin="round"/><path d="M15.471 10.37a4.007 4.007 0 01-2.153 4.16 3.985 3.985 0 01-4.618-.745 4.003 4.003 0 01.984-6.379 3.984 3.984 0 014.661.722c.606.607 1 1.393 1.126 2.242zm1.497-4.87h.01" stroke="#DADADA" stroke-width="2" stroke-linecap="round" stroke-linejoin="round"/></svg>