
<svg display="none" xmlns="http://www.w3.org/2000/svg">

  <symbol id="home" viewBox="0 0 37 37">
    <path d="M34.099 29.856V16.4969L36.9999 18.1717V10.6809L18.5 0L12.12 3.68352V0H4.97599V7.80808L0.000144531 10.6809V18.1717L2.90096 16.4969V29.856H0V37H37V29.856H34.099ZM7.14396 2.16797H9.95199V4.93516L7.14396 6.55644V2.16797ZM2.16811 11.9326L18.5 2.50335L34.8319 11.9326V14.4166L18.5 4.98741L2.16811 14.4166V11.9326ZM5.06893 15.2452L18.5 7.49077L31.9311 15.2452V29.856H17.096V17.416H7.46403V29.856H5.06893V15.2452ZM14.928 29.856H9.63192V19.584H14.928V29.856ZM34.832 34.832H2.16797V32.024H34.832V34.832Z"/>
  </symbol>

  <symbol id="deal" viewBox="0 0 42 44" xmlns="http://www.w3.org/2000/svg">
    <g filter="url(#filter0_d)">
      <path d="M9.84668 19.3662H27.3336V21.4756H9.84668V19.3662Z" />
      <path d="M9.84668 24.2075H27.3336V26.3169H9.84668V24.2075Z" />
      <path d="M9.84668 29.0491H27.3336V31.1584H9.84668V29.0491Z" />
      <path d="M32.4233 24.2076V0H4.75684V32.5245C4.75684 34.4409 6.39583 36 8.41047 36H33.8595C35.8741 36 37.5131 34.4409 37.5131 32.5245V24.2076H32.4233ZM8.41047 33.8906C7.61858 33.8906 6.97438 33.2778 6.97438 32.5245V2.10938H30.2059V32.5245C30.2059 33.0093 30.3107 33.4711 30.5 33.8906H8.41047ZM35.2956 32.5245C35.2956 33.2778 34.6514 33.8906 33.8595 33.8906C33.0676 33.8906 32.4233 33.2778 32.4233 32.5245V26.317H35.2956V32.5245Z" />
      <path d="M12.3913 10.6639V16.6339H24.7884V10.6639L25.279 10.9439L26.4199 9.13511L18.5899 4.66626L10.7598 9.13518L11.9007 10.944L12.3913 10.6639ZM22.5709 9.39836V14.5246H19.6987V11.9482H17.4812V14.5246H14.6089V9.39836L18.5899 7.12628L22.5709 9.39836Z"/>
    </g>
    <defs>
      <filter id="filter0_d" x="0.756836" y="0" width="40.7563" height="44" filterUnits="userSpaceOnUse" color-interpolation-filters="sRGB">
      <feFlood flood-opacity="0" result="BackgroundImageFix"/>
      <feColorMatrix in="SourceAlpha" type="matrix" values="0 0 0 0 0 0 0 0 0 0 0 0 0 0 0 0 0 0 127 0"/>
      <feOffset dy="4"/>
      <feGaussianBlur stdDeviation="2"/>
      <feColorMatrix type="matrix" values="0 0 0 0 0 0 0 0 0 0 0 0 0 0 0 0 0 0 0.25 0"/>
      <feBlend mode="normal" in2="BackgroundImageFix" result="effect1_dropShadow"/>
      <feBlend mode="normal" in="SourceGraphic" in2="effect1_dropShadow" result="shape"/>
      </filter>
    </defs>
  </symbol>

  <symbol id="family" viewBox="0 0 43 33" xmlns="http://www.w3.org/2000/svg">
    <g>
      <path d="M10.1134 11.7798C9.90389 11.7798 9.69457 11.8615 9.53746 12.0241C9.23012 12.3421 9.23877 12.8491 9.55684 13.1564C10.604 14.1684 12.3078 14.1684 13.355 13.1564C13.6731 12.8491 13.6817 12.3421 13.3744 12.0241C13.0671 11.7061 12.5601 11.6975 12.2421 12.0048C11.8086 12.4237 11.1033 12.4237 10.6698 12.0048C10.5144 11.8545 10.3138 11.7798 10.1134 11.7798Z"/>
      <path d="M41.9764 16.1355C42.077 15.7292 41.8478 15.3139 41.4503 15.1826C39.5534 14.5559 37.2921 13.1431 37.2921 9.97074V8.29102C37.2921 5.70057 36.6987 3.67331 35.5284 2.2657C34.3958 0.903413 32.7492 0.18335 30.7667 0.18335C28.8674 0.18335 27.2512 0.900609 26.0926 2.25769C24.8815 3.67636 24.2413 5.76263 24.2413 8.29102V9.97074C24.2413 11.7277 23.5512 13.1237 22.1892 14.1252C21.8644 14.0602 21.5288 14.0256 21.1852 14.0256C18.9951 14.0256 17.1212 15.4069 16.3901 17.344C16.1763 17.284 15.056 16.9821 14.7253 16.8852V16.3524C16.8649 15.1888 18.3204 12.9202 18.3204 10.318V7.13781C18.3204 3.35188 15.2414 0.271756 11.4568 0.271756C7.67091 0.271756 4.59086 3.35188 4.59086 7.13781V10.318C4.59086 12.9198 6.04636 15.188 8.18613 16.3518V16.8851C7.85541 16.982 7.51187 17.0749 7.15633 17.171C4.44416 17.9022 1.06807 18.8118 1 22.9511V29.9691C1 30.4112 1.35875 30.7699 1.80078 30.7699H12.6289V31.9085C12.6289 31.9105 12.6285 31.9124 12.6285 31.9144C12.6285 32.3567 12.9871 32.7152 13.4293 32.7152H17.5855C18.0277 32.7152 18.3862 32.3567 18.3862 31.9144C18.3862 31.4721 18.0277 31.1136 17.5855 31.1136H14.2303V30.6339C14.24 30.0477 14.3176 29.5672 14.457 29.1684C14.9607 27.7254 16.2643 27.341 18.0397 26.8173C18.1229 26.7928 18.2072 26.768 18.2917 26.7429C18.7134 27.8978 19.8228 28.7246 21.1219 28.7246C22.5288 28.7246 23.6629 27.9227 24.0828 26.7447C24.1654 26.7691 24.2476 26.7934 24.329 26.8173C26.5952 27.4859 28.0927 27.9271 28.1383 30.6338V31.1135H24.7765C24.3342 31.1135 23.9757 31.472 23.9757 31.9143C23.9757 32.3566 24.3342 32.7151 24.7765 32.7151H28.9394C29.3817 32.7151 29.7402 32.3566 29.7402 31.9143C29.7402 31.9123 29.7399 31.9103 29.7399 31.9083V30.7697H40.4227C40.865 30.7697 41.2235 30.4112 41.2235 29.969V22.9639C41.2235 22.9595 41.2235 22.9551 41.2234 22.9507C41.1958 21.2736 40.6251 20.1268 39.7757 19.3072C40.9285 18.7668 41.5634 17.8018 41.9764 16.1355ZM30.7667 1.78483C32.2791 1.78483 33.4668 2.29109 34.2969 3.2895C35.1298 4.29136 35.5916 5.75735 35.6754 7.65047C34.1922 7.90768 32.4464 7.69988 31.4813 5.7913C31.1908 5.2181 30.3422 5.21738 30.052 5.7913C29.0872 7.69916 27.3424 7.90752 25.8596 7.65079C26.0449 3.96416 27.8489 1.78483 30.7667 1.78483ZM25.8429 9.26829C26.1836 9.31578 26.5152 9.33972 26.8365 9.33972C28.451 9.33972 29.8055 8.74394 30.7667 7.60387C31.7278 8.74402 33.0823 9.33972 34.697 9.33972C35.0182 9.33972 35.3498 9.31578 35.6906 9.26829V9.97082C35.6906 12.6859 33.4818 14.8948 30.7668 14.8948C28.0518 14.8948 25.843 12.6859 25.843 9.97082V9.26829H25.8429ZM32.4355 16.279V17.4752C32.4355 18.3942 31.6869 19.1418 30.7667 19.1418C29.8477 19.1418 29.1001 18.3942 29.1001 17.4752V16.2796C29.6323 16.4205 30.1907 16.4964 30.7667 16.4964C31.3435 16.4963 31.9026 16.4202 32.4355 16.279ZM25.0893 13.1816C25.6622 14.1907 26.4963 15.0326 27.4986 15.6156V16.8851C27.1656 16.9827 26.8205 17.0757 26.4627 17.1722C26.298 17.2165 26.1308 17.2618 25.9629 17.3079C25.5565 16.2599 24.8175 15.3776 23.8755 14.7927C24.3722 14.3118 24.7782 13.7729 25.0893 13.1816ZM17.9212 17.8253C18.4457 16.5376 19.711 15.6271 21.1852 15.6271C22.8979 15.6271 24.3276 16.8594 24.6431 18.487C23.5758 17.9762 22.3885 17.7032 21.1847 17.7032C19.9804 17.7032 18.7928 17.9765 17.7256 18.4877C17.7696 18.2583 17.8352 18.0366 17.9212 17.8253ZM6.19251 7.13781C6.19251 4.23498 8.55409 1.87332 11.4568 1.87332C14.3584 1.87332 16.7189 4.23498 16.7189 7.13781V7.96638C14.6138 8.03669 11.9609 7.78645 10.0048 6.44754C9.65268 6.20659 9.17357 6.28394 8.91524 6.62331C8.2381 7.51306 7.38775 7.73376 6.19259 7.87581V7.13781H6.19251ZM6.19251 10.318V9.48771C7.48048 9.34373 8.69359 9.10846 9.70081 8.14343C11.8921 9.38408 14.5688 9.63441 16.7189 9.56883V10.318C16.7189 13.2197 14.3583 15.5803 11.4568 15.5803C8.55409 15.5803 6.19251 13.2197 6.19251 10.318ZM13.1237 16.976V17.468C13.1237 17.4704 13.1233 17.4727 13.1233 17.4751C13.1233 18.3941 12.3757 19.1418 11.4568 19.1418C10.5366 19.1418 9.78793 18.3941 9.78793 17.4751C9.78793 17.4734 9.78769 17.4717 9.78769 17.4701V16.9757C10.3223 17.1096 10.8812 17.1818 11.4568 17.1818C12.0316 17.1819 12.5899 17.1099 13.1237 16.976ZM18.1102 25.1251C17.9348 25.1788 17.7595 25.2308 17.5865 25.2813C15.6102 25.8642 13.4064 26.5137 12.7938 29.1683H6.8871V25.9284C6.8871 25.4861 6.52859 25.1276 6.08632 25.1276C5.64405 25.1276 5.28554 25.4861 5.28554 25.9284V29.1683H2.60156V22.971C2.64961 20.2404 4.51223 19.5421 7.57281 18.7173C7.83058 18.6476 8.09252 18.5767 8.35309 18.5031C8.78527 19.8029 10.0129 20.7433 11.4568 20.7433C12.8998 20.7433 14.1266 19.8029 14.5584 18.503C14.8192 18.5766 15.8328 18.8518 16.0666 18.9183C16.0626 18.9951 16.061 19.0728 16.061 19.1505V20.2828C16.061 21.9556 16.8666 23.4443 18.1102 24.3796V25.1251ZM22.657 25.7099C22.657 25.7109 22.6569 25.7118 22.6569 25.7127C22.6569 26.6816 21.8612 27.1229 21.122 27.1229C20.3445 27.1229 19.7119 26.4903 19.7119 25.7127C19.7119 25.712 19.7118 25.7113 19.7118 25.7105V25.1916C19.9064 25.25 20.1058 25.2981 20.31 25.3325C20.5942 25.3822 20.8865 25.4078 21.1852 25.4078C21.4319 25.4078 21.6745 25.3902 21.9115 25.3557C22.1662 25.3205 22.4152 25.2653 22.657 25.1924V25.7099ZM23.0831 23.2505C22.0067 23.9681 20.3911 24.0039 19.3154 23.2673C18.3439 22.6565 17.6919 21.5845 17.6651 20.3606C19.762 18.9636 22.6075 18.9637 24.7061 20.361C24.6794 21.5729 24.0394 22.6368 23.0831 23.2505ZM39.622 29.1681H36.938V25.9284C36.938 25.4861 36.5795 25.1276 36.1372 25.1276C35.695 25.1276 35.3365 25.4861 35.3365 25.9284V29.1681H29.5748C28.9617 26.5137 26.7583 25.8641 24.7823 25.2813C24.6094 25.2308 24.434 25.1788 24.2586 25.1251V24.382C25.5038 23.4459 26.3102 21.9564 26.3102 20.2828V19.1641C26.3102 19.0673 26.307 18.9712 26.3016 18.8756C26.495 18.8222 26.6887 18.7699 26.8792 18.7185C27.1389 18.6486 27.4026 18.5773 27.6651 18.5032C28.0971 19.803 29.3237 20.7434 30.7666 20.7434C32.2105 20.7434 33.438 19.803 33.8703 18.5033C34.1309 18.5768 34.3927 18.6477 34.6506 18.7172C37.7113 19.5422 39.574 20.2405 39.6219 22.9708V29.1681H39.622ZM38.0446 18.1607C37.0881 17.7155 36.0355 17.4317 35.0674 17.1707C34.7114 17.0748 34.368 16.9822 34.0371 16.8852V15.6143C35.0361 15.0326 35.8678 14.1938 36.4401 13.1885C37.3503 14.9139 38.9252 15.8931 40.2244 16.4338C39.841 17.5488 39.301 17.9489 38.0446 18.1607Z"/>
      <path d="M21.1807 31.1135C20.7384 31.1135 20.3799 31.472 20.3799 31.9143C20.3799 32.3566 20.7384 32.7151 21.1807 32.7151H21.1852C21.6275 32.7151 21.9838 32.3566 21.9838 31.9143C21.9838 31.472 21.6229 31.1135 21.1807 31.1135Z" />
    </g>
  </symbol>

  <symbol id="inheritance" viewBox="0 0 36 41" xmlns="http://www.w3.org/2000/svg">
    <g>
      <path d="M34.566 29.8663C33.9298 28.781 32.5392 28.4085 31.4455 29.0305L26.5834 31.8363C26.2142 31.0211 25.4032 30.4967 24.5083 30.4944H17.7493L15.6424 29.7922C14.7692 29.5008 13.8548 29.3522 12.9342 29.3525H12.4483C10.896 29.3525 9.37265 29.7746 8.04169 30.5733L7.2212 31.0654H6.80831C6.80831 30.7501 6.55266 30.4944 6.23734 30.4944H1.6696C1.35429 30.4944 1.09863 30.7501 1.09863 31.0654V39.059C1.09863 39.3743 1.35429 39.6299 1.6696 39.6299H6.23734C6.55266 39.6299 6.80831 39.3743 6.80831 39.059H11.1084C11.2645 39.059 11.4204 39.0682 11.5754 39.0863L18.3818 39.8858C18.7094 39.924 19.0392 39.9433 19.369 39.9427C20.8765 39.9427 22.3574 39.5474 23.6644 38.7963L33.7294 32.9874C34.4398 32.5823 34.8763 31.826 34.8713 31.0083C34.8708 30.6076 34.7654 30.214 34.566 29.8663ZM5.66638 38.488H2.24057V31.6364H5.66638V38.488ZM33.1584 31.9982L23.0934 37.8097C21.7067 38.6056 20.1014 38.936 18.5132 38.7528L11.7067 37.9535C11.5082 37.9298 11.3083 37.9176 11.1084 37.917H6.80831V32.2073H7.37928C7.48299 32.2073 7.58447 32.1792 7.67341 32.1257L8.62911 31.5547C9.78247 30.8616 11.1028 30.4953 12.4483 30.4944H12.9342C13.7319 30.4944 14.5242 30.623 15.2808 30.8753L17.4763 31.6074C17.5346 31.6266 17.5954 31.6364 17.6567 31.6364H24.5083C25.1389 31.6364 25.6503 32.1477 25.6503 32.7783C25.6503 33.4089 25.1389 33.9202 24.5083 33.9202H15.9438V35.0622H24.5083C25.6614 35.0586 26.6299 34.1946 26.7649 33.0496L32.0143 30.0199C32.3675 29.8161 32.8027 29.8159 33.1559 30.0199C33.5091 30.2237 33.7269 30.6004 33.7272 31.0083C33.7302 31.4167 33.5128 31.795 33.1584 31.9982Z"/>
      <path d="M7.91667 26H27.0833C28.1418 26 29 25.1389 29 24.0769C29 23.0149 28.1418 22.1538 27.0833 22.1538V15.1026C27.0774 11.411 24.2361 8.34801 20.5669 8.07757C20.9041 7.20023 20.5456 6.20771 19.7264 5.75073L21.888 1.96154C22.0022 1.7631 22.0022 1.51833 21.8877 1.31989C21.7732 1.12144 21.562 0.999688 21.3333 1H13.6667C13.4383 0.999688 13.2268 1.12144 13.1126 1.31989C12.9981 1.51833 12.9978 1.7631 13.112 1.96154L15.2717 5.75323C14.4525 6.21021 14.094 7.20274 14.4316 8.08008C10.7636 8.35145 7.92384 11.4126 7.91667 15.1026V22.1538C6.8582 22.1538 6 23.0149 6 24.0769C6 25.1389 6.8582 26 7.91667 26ZM15.5833 7.41026C15.5833 7.05625 15.8694 6.76923 16.2222 6.76923H18.7778C19.1306 6.76923 19.4167 7.05625 19.4167 7.41026C19.4167 7.76426 19.1306 8.05128 18.7778 8.05128H16.2222C15.8694 8.05128 15.5833 7.76426 15.5833 7.41026ZM20.2318 2.28205L18.4072 5.48718H16.5928L14.7682 2.28205H20.2318ZM7.91667 23.4359C8.62231 23.4359 9.19444 22.8619 9.19444 22.1538V15.1026C9.19788 11.9178 11.7703 9.33678 14.9444 9.33333H20.0556C23.2297 9.33678 25.8021 11.9178 25.8056 15.1026V22.1538C25.8056 22.8619 26.3777 23.4359 27.0833 23.4359C27.4362 23.4359 27.7222 23.7229 27.7222 24.0769C27.7222 24.4309 27.4362 24.7179 27.0833 24.7179H7.91667C7.56384 24.7179 7.27778 24.4309 7.27778 24.0769C7.27778 23.7229 7.56384 23.4359 7.91667 23.4359Z" />
    </g>
  </symbol>

  <symbol id="disputes" viewBox="0 0 42 42" xmlns="http://www.w3.org/2000/svg">
    <g>
      <path d="M41.8289 17.9123L34.7993 8.78053C34.5391 8.44279 34.0645 8.35948 33.7046 8.58827L29.166 11.4747H23.2466C23.17 11.4747 23.0938 11.4911 23.0201 11.5126L18.4305 12.8337L13.6682 11.5311L9.04079 8.58827C8.68703 8.36333 8.22112 8.43959 7.95804 8.76579L0.182695 18.3968C-0.0967238 18.7428 -0.0505812 19.2482 0.286516 19.5382L4.3618 23.0453L8.01796 27.9723C6.94867 29.1115 6.9695 30.9081 8.08205 32.021C8.5752 32.5138 9.20229 32.7923 9.84733 32.857C9.82489 33.0031 9.81336 33.1515 9.81336 33.3021C9.81336 34.0795 10.1162 34.8104 10.6657 35.3599C11.2156 35.9098 11.9465 36.2126 12.7239 36.2126C12.7344 36.2126 12.7447 36.212 12.7549 36.2117C12.7546 36.2315 12.7537 36.2511 12.7537 36.2709C12.7537 37.0483 13.0565 37.7792 13.606 38.3291C14.1559 38.8786 14.8868 39.1814 15.6642 39.1814C15.8177 39.1814 15.9695 39.1689 16.1186 39.1459C16.1817 39.7932 16.4608 40.4231 16.9555 40.9179C17.5227 41.4854 18.268 41.769 19.0134 41.769C19.7587 41.769 20.504 41.4854 21.0715 40.9179L21.5166 40.4728L21.7034 40.6234C22.2661 41.1685 22.9967 41.4408 23.7273 41.4408C24.4726 41.4408 25.2179 41.1572 25.7851 40.5898C26.3641 40.0107 26.6477 39.2465 26.6359 38.4861C27.3959 38.4976 28.1605 38.2144 28.7395 37.6357C29.3179 37.057 29.6015 36.2934 29.5903 35.5333C30.3821 35.5458 31.1332 35.2417 31.6936 34.6813C32.2726 34.1022 32.5562 33.338 32.5444 32.5776C33.3051 32.5891 34.069 32.3059 34.648 31.7269C35.6362 30.7386 35.7634 29.2111 35.0306 28.0835L37.7001 22.4926L41.7136 19.0389C42.0452 18.7534 42.0959 18.2587 41.8289 17.9123ZM8.77739 10.3728L12.1048 12.4886L4.86649 21.307L1.96591 18.8105L8.77739 10.3728ZM9.24683 29.0695L10.2511 28.0652C10.2815 28.0348 10.3136 28.006 10.3462 27.979C10.5427 27.8188 10.7804 27.7233 11.0323 27.7006C11.0393 27.7 11.0467 27.7 11.0538 27.6996C11.0897 27.6967 11.1255 27.6948 11.1617 27.6951C11.5059 27.7 11.8257 27.8406 12.0628 28.0909C12.5281 28.5827 12.5031 29.3864 12.0071 29.8824L11.0333 30.8562C10.5407 31.3487 9.73934 31.3487 9.24683 30.8562C8.75432 30.3634 8.75432 29.562 9.24683 29.0695ZM11.8305 34.1952C11.5918 33.9568 11.4604 33.6395 11.4604 33.3021C11.4604 32.9647 11.5918 32.6475 11.8305 32.4087L13.7778 30.4615C14.1508 30.0885 14.7372 29.9863 15.214 30.2134C15.7055 30.4477 15.982 30.9812 15.9099 31.5179C15.8715 31.8044 15.7382 32.0742 15.5338 32.279L13.6172 34.1952C13.3785 34.4339 13.0613 34.5653 12.7239 34.5653C12.3864 34.5653 12.0692 34.4339 11.8305 34.1952ZM14.7708 37.164C14.5321 36.9256 14.4007 36.6084 14.4007 36.2709C14.4007 35.9335 14.5321 35.6163 14.7708 35.3776L16.7178 33.4303C17.1167 33.0317 17.7566 32.9458 18.245 33.23C18.691 33.4896 18.9246 33.9991 18.848 34.5066C18.806 34.7857 18.6734 35.0482 18.4737 35.2478L16.5575 37.164C16.3188 37.4027 16.0016 37.5341 15.6642 37.5341C15.3268 37.5341 15.0095 37.4027 14.7708 37.164ZM18.12 39.7531C17.6275 39.2606 17.6275 38.4592 18.12 37.9667L19.1242 36.9624C19.1547 36.932 19.1864 36.9035 19.2191 36.8766C19.22 36.8759 19.2207 36.8753 19.2213 36.8746C19.3847 36.742 19.5767 36.6532 19.7814 36.6144C19.7862 36.6138 19.7911 36.6132 19.7959 36.6125C19.8311 36.6061 19.867 36.601 19.9029 36.5978C19.9173 36.5965 19.9317 36.5965 19.9465 36.5955C19.9759 36.5939 20.0051 36.592 20.0349 36.5923C20.3787 36.5971 20.6988 36.7375 20.936 36.9881C20.9651 37.0188 20.9924 37.0509 21.0174 37.0839C21.3961 37.579 21.3452 38.3144 20.8751 38.7847L19.9064 39.7534C19.4139 40.2459 18.6125 40.2456 18.12 39.7531ZM33.4832 30.5621C32.9907 31.0549 32.1893 31.0546 31.6968 30.5621C31.6789 30.5441 31.66 30.5275 31.6407 30.5118L26.3452 25.1605C26.0251 24.8372 25.5038 24.8346 25.1804 25.1547C24.8571 25.4745 24.8546 25.9959 25.1744 26.3192L30.5272 31.7278C30.5279 31.7285 30.5285 31.7291 30.5291 31.7297C31.0216 32.2222 31.0216 33.024 30.5291 33.5165C30.2904 33.7552 29.9732 33.8866 29.6358 33.8866C29.298 33.8866 28.9808 33.7552 28.7424 33.5165L25.1615 29.8985C24.8417 29.5751 24.3204 29.5726 23.9971 29.8924C23.6738 30.2125 23.6712 30.7338 23.991 31.0571L27.5171 34.6197C27.535 34.6422 27.5542 34.6636 27.5747 34.6841C28.0672 35.1767 28.0672 35.9784 27.5747 36.4709C27.0819 36.9634 26.2802 36.9631 25.7877 36.4706L23.8333 34.4957C23.5132 34.1724 22.9919 34.1695 22.6686 34.4896C22.3452 34.8094 22.3427 35.3308 22.6625 35.6541L24.5623 37.5735C24.5803 37.5959 24.5995 37.6177 24.6203 37.6382C25.1128 38.1307 25.1128 38.9325 24.6203 39.425C24.1278 39.9178 23.3264 39.9175 22.8339 39.425C22.7772 39.3683 22.7105 39.3247 22.6471 39.276C22.5933 39.235 22.5792 39.2064 22.6061 39.1411C22.6333 39.0747 22.674 39.0148 22.7012 38.9482C22.7314 38.8738 22.7557 38.7972 22.7794 38.7203C22.9057 38.3134 22.9428 37.8757 22.8861 37.4533C22.7772 36.643 22.3315 35.9117 21.656 35.449C21.291 35.1994 20.8687 35.0357 20.431 34.9741C20.6431 34.0385 20.3883 33.024 19.7257 32.3238C19.1803 31.7477 18.4436 31.4244 17.6512 31.4135C17.6224 31.4131 17.5935 31.4131 17.5644 31.4135C17.582 30.6572 17.307 29.9058 16.7857 29.355C16.24 28.7789 15.5033 28.4555 14.7112 28.4446C14.4757 28.4414 14.2379 28.4664 14.0085 28.5193C13.9104 27.8371 13.5666 27.2058 13.0459 26.7543C12.5284 26.3064 11.8776 26.0577 11.1845 26.0481C10.4549 26.0375 9.73806 26.3067 9.1962 26.796L6.01268 22.5063L13.6288 13.2278L16.0561 13.8918L12.886 19.4856C12.5028 20.162 12.406 20.9471 12.6133 21.6963C12.8206 22.4458 13.3071 23.0694 13.9835 23.4526C14.0258 23.4766 14.0684 23.4994 14.1117 23.5212C14.1149 23.5228 14.1181 23.5244 14.1216 23.526C14.2354 23.5827 14.3523 23.6314 14.4709 23.6724C15.023 23.8637 15.6193 23.8845 16.1945 23.7256C16.9437 23.5183 17.5672 23.0315 17.9505 22.3554L20.0106 18.7201L23.6888 18.9809L33.4835 28.7753C33.9757 29.2682 33.9757 30.0696 33.4832 30.5621ZM33.8245 26.787L24.636 17.5989C24.6187 17.5813 24.6005 17.5646 24.5816 17.5489C24.4492 17.4387 24.2851 17.372 24.1121 17.3598L19.6084 17.0404C19.2969 17.0189 18.9874 17.1846 18.8336 17.456L16.5175 21.5434C16.3512 21.837 16.0804 22.0481 15.7552 22.1382C15.4303 22.2282 15.0893 22.1859 14.7955 22.0196C14.502 21.8533 14.2908 21.5825 14.2008 21.2573C14.1107 20.9321 14.1527 20.5911 14.3193 20.2976L17.4112 14.8409L18.6641 14.4804C18.6724 14.4779 18.6804 14.4747 18.6888 14.4721L23.3649 13.1218H29.0148L36.0682 22.0882L33.8245 26.787ZM37.1471 20.7955L30.6243 12.4992L33.9533 10.3821L40.0483 18.299L37.1471 20.7955Z" />
      <path d="M25.4446 9.92842C25.6555 9.92842 25.8663 9.84799 26.0272 9.68713L31.6527 4.06158C31.9744 3.73987 31.9744 3.21852 31.6527 2.8968C31.331 2.57509 30.8097 2.57509 30.4879 2.8968L24.8624 8.52235C24.5407 8.84407 24.5407 9.36542 24.8624 9.68713C25.0232 9.84799 25.2341 9.92842 25.4446 9.92842Z" />
      <path d="M15.9733 9.68713C16.1341 9.84799 16.345 9.92842 16.5558 9.92842C16.7663 9.92842 16.9772 9.84799 17.1381 9.68713C17.4598 9.36542 17.4598 8.84407 17.1381 8.52235L11.5125 2.8968C11.1908 2.57509 10.6694 2.57509 10.3477 2.8968C10.026 3.21852 10.026 3.73987 10.3477 4.06158L15.9733 9.68713Z" />
      <path d="M21.0003 9.92836C21.455 9.92836 21.8238 9.55954 21.8238 9.10484V4.44925C21.8238 3.99455 21.455 3.62573 21.0003 3.62573C20.5456 3.62573 20.1768 3.99455 20.1768 4.44925V9.10484C20.1768 9.55954 20.5456 9.92836 21.0003 9.92836Z"/>
      <path d="M20.2401 1.46438C20.3708 1.78129 20.6967 1.98925 21.0405 1.97131C21.3802 1.95368 21.6785 1.72425 21.7836 1.40093C21.889 1.07505 21.7743 0.703667 21.5013 0.496026C21.2228 0.283898 20.8345 0.272042 20.5432 0.464623C20.2183 0.679314 20.0924 1.10677 20.2401 1.46438Z"/>
    </g>
  </symbol>

  <symbol id="location" viewBox="0 0 44 44" xmlns="http://www.w3.org/2000/svg"> 
    <g>
      <path d="M21.9995 9.0874C19.6262 9.0874 17.6953 11.0183 17.6953 13.3916C17.6953 15.7649 19.6262 17.6958 21.9995 17.6958C24.3728 17.6958 26.3037 15.7649 26.3037 13.3916C26.3037 11.0183 24.3728 9.0874 21.9995 9.0874ZM21.9995 14.8263C21.2084 14.8263 20.5648 14.1827 20.5648 13.3916C20.5648 12.6005 21.2084 11.9569 21.9995 11.9569C22.7906 11.9569 23.4342 12.6005 23.4342 13.3916C23.4342 14.1827 22.7906 14.8263 21.9995 14.8263Z" />
      <path d="M43.9254 38.7631L38.1865 21.5464C37.9912 20.9606 37.443 20.5654 36.8254 20.5654H29.3457C30.6089 18.5709 32.043 16.718 32.043 13.3917C32.043 7.854 27.5377 3.34863 21.9999 3.34863C16.4621 3.34863 11.9569 7.854 11.9569 13.3917C11.9569 16.7377 13.4084 18.6018 14.6758 20.5654H7.17451C6.55688 20.5654 6.00877 20.9606 5.81343 21.5464L0.0745154 38.7631C-0.234602 39.6908 0.456594 40.6515 1.4356 40.6515H42.5643C43.5422 40.6514 44.235 39.6918 43.9254 38.7631ZM22 6.21809C25.9555 6.21809 29.1736 9.4362 29.1736 13.3917C29.1736 14.7542 28.7904 16.0794 28.0656 17.2238L22.0575 26.7098L15.9678 17.2757C15.2211 16.1192 14.8265 14.7761 14.8265 13.3917C14.8263 9.43611 18.0444 6.21809 22 6.21809ZM3.42617 37.7821L8.2086 23.4348H16.5281L20.8636 30.1514C21.4314 31.031 22.7207 31.0259 23.2811 30.141L27.5284 23.435H35.7914L40.5738 37.7822L3.42617 37.7821Z" />
    </g>
  </symbol>

</svg>
