<svg width="37" height="37" fill="none" xmlns="http://www.w3.org/2000/svg"><path d="M29.536 17.416h-9.632v7.144h9.632v-7.144zm-2.168 4.976h-5.296v-2.808h5.296v2.808z" fill="#0A1243"/><path d="M34.099 29.856v-13.36l2.9 1.676V10.68L18.5 0l-6.38 3.684V0H4.976v7.808L0 10.681v7.49l2.901-1.674v13.359H0V37h37v-7.144h-2.901zM7.144 2.168h2.808v2.767L7.144 6.556V2.168zm-4.976 9.765L18.5 2.503l16.332 9.43v2.484L18.5 4.987l-16.332 9.43v-2.484zm2.9 3.312L18.5 7.491l13.431 7.754v14.611H17.096v-12.44H7.464v12.44H5.069v-14.61zm9.86 14.611H9.632V19.584h5.296v10.272zm19.904 4.976H2.168v-2.808h32.664v2.808z" fill="#0A1243"/></svg>