<svg width="36" height="41" fill="none" xmlns="http://www.w3.org/2000/svg"><path d="M34.566 29.866a2.3 2.3 0 00-3.12-.835l-4.863 2.805a2.284 2.284 0 00-2.075-1.342H17.75l-2.107-.702a8.546 8.546 0 00-2.708-.44h-.486a8.565 8.565 0 00-4.406 1.221l-.82.492h-.414a.571.571 0 00-.57-.57H1.67a.571.571 0 00-.571.57v7.994c0 .315.255.57.57.57h4.568a.57.57 0 00.571-.57h4.3c.156 0 .312.01.467.027l6.807.8a8.62 8.62 0 005.283-1.09l10.064-5.809a2.262 2.262 0 001.142-1.979c0-.4-.106-.794-.305-1.142zm-28.9 8.622H2.241v-6.852h3.425v6.852zm27.492-6.49L23.093 37.81a7.48 7.48 0 01-4.58.943l-6.806-.8a5.18 5.18 0 00-.599-.036h-4.3v-5.71h.571a.57.57 0 00.294-.081l.956-.571a7.425 7.425 0 013.82-1.06h.485c.798 0 1.59.128 2.347.38l2.195.732c.059.02.12.03.18.03h6.852a1.142 1.142 0 010 2.283h-8.564v1.142h8.564a2.28 2.28 0 002.257-2.012l5.25-3.03a1.142 1.142 0 011.712.988 1.13 1.13 0 01-.569.99zM7.917 26h19.166A1.92 1.92 0 0029 24.077a1.92 1.92 0 00-1.917-1.923v-7.051c-.006-3.692-2.847-6.755-6.516-7.025a1.889 1.889 0 00-.84-2.327l2.161-3.79A.643.643 0 0021.333 1h-7.666a.643.643 0 00-.555.962l2.16 3.791a1.888 1.888 0 00-.84 2.327c-3.668.271-6.508 3.333-6.515 7.023v7.05A1.92 1.92 0 006 24.078 1.92 1.92 0 007.917 26zm7.666-18.59a.64.64 0 01.64-.64h2.555a.64.64 0 010 1.281h-2.556a.64.64 0 01-.639-.64zm4.649-5.128l-1.825 3.205h-1.814l-1.825-3.205h5.464zM7.917 23.436a1.28 1.28 0 001.277-1.282v-7.051c.004-3.185 2.576-5.766 5.75-5.77h5.112c3.174.004 5.746 2.585 5.75 5.77v7.05a1.28 1.28 0 001.277 1.283.64.64 0 010 1.282H7.917a.64.64 0 010-1.282z" fill="#0A1243" stroke="#0A1243" stroke-width=".7"/><path d="M20 17h1v2h-1v-2zm-6 0h1v2h-1v-2zm3 0h1v2h-1v-2z" fill="#0A1243" stroke="#0A1243" stroke-width=".7"/></svg>