<svg width="42" height="44" fill="none" xmlns="http://www.w3.org/2000/svg"><g filter="url(#filter0_d)" fill="#4782C6"><path d="M9.847 19.366h17.487v2.11H9.847v-2.11zm0 4.841h17.487v2.11H9.847v-2.11zm0 4.843h17.487v2.108H9.847V29.05z"/><path d="M32.423 24.208V0H4.757v32.525C4.757 34.44 6.396 36 8.41 36h25.45c2.014 0 3.653-1.56 3.653-3.475v-8.317h-5.09zM8.41 33.89c-.791 0-1.436-.613-1.436-1.366V2.109h23.232v30.416c0 .484.105.946.294 1.366H8.41zm26.886-1.366c0 .753-.645 1.366-1.437 1.366-.791 0-1.436-.613-1.436-1.366v-6.208h2.873v6.208z"/><path d="M12.391 10.664v5.97h12.397v-5.97l.491.28 1.14-1.809-7.83-4.469-7.83 4.47 1.142 1.808.49-.28zm10.18-1.266v5.127h-2.872v-2.577H17.48v2.577h-2.87V9.398l3.98-2.272 3.982 2.272z"/></g><defs><filter id="filter0_d" x=".757" y="0" width="40.756" height="44" filterUnits="userSpaceOnUse" color-interpolation-filters="sRGB"><feFlood flood-opacity="0" result="BackgroundImageFix"/><feColorMatrix in="SourceAlpha" values="0 0 0 0 0 0 0 0 0 0 0 0 0 0 0 0 0 0 127 0"/><feOffset dy="4"/><feGaussianBlur stdDeviation="2"/><feColorMatrix values="0 0 0 0 0 0 0 0 0 0 0 0 0 0 0 0 0 0 0.25 0"/><feBlend in2="BackgroundImageFix" result="effect1_dropShadow"/><feBlend in="SourceGraphic" in2="effect1_dropShadow" result="shape"/></filter></defs></svg>