<svg width="43" height="33" fill="none" xmlns="http://www.w3.org/2000/svg"><path d="M10.113 11.78a.8.8 0 00-.557 1.377 2.755 2.755 0 003.799 0 .8.8 0 10-1.113-1.152 1.14 1.14 0 01-1.572 0 .798.798 0 00-.557-.225z" fill="#0A1243" stroke="#0A1243" stroke-width=".3"/><path d="M41.976 16.136a.8.8 0 00-.526-.953c-1.897-.627-4.158-2.04-4.158-5.212V8.29c0-2.59-.593-4.618-1.764-6.025C34.396.903 32.75.183 30.767.183c-1.9 0-3.516.718-4.674 2.075C24.88 3.676 24.24 5.763 24.24 8.29v1.68c0 1.757-.69 3.153-2.052 4.154a5.132 5.132 0 00-5.8 3.219c-.213-.06-1.333-.362-1.664-.459v-.533a6.87 6.87 0 003.595-6.034v-3.18c0-3.786-3.079-6.866-6.863-6.866A6.874 6.874 0 004.59 7.138v3.18a6.87 6.87 0 003.595 6.034v.533c-.33.097-.674.19-1.03.286-2.712.731-6.088 1.64-6.156 5.78v7.018a.8.8 0 00.8.8H12.63v1.146a.8.8 0 00.8.801h4.156a.8.8 0 000-1.601H14.23v-.48c.01-.586.088-1.067.227-1.466.504-1.443 1.807-1.827 3.583-2.35l.252-.075a3.017 3.017 0 002.83 1.982c1.407 0 2.54-.802 2.96-1.98l.247.072c2.266.669 3.764 1.11 3.81 3.817v.48h-3.363a.8.8 0 100 1.601h4.163a.8.8 0 00.801-.8V30.77h10.683a.8.8 0 00.8-.801v-7.018c-.027-1.677-.598-2.824-1.447-3.644 1.152-.54 1.787-1.505 2.2-3.171zM30.766 1.784c1.513 0 2.7.506 3.53 1.504.834 1.002 1.296 2.468 1.38 4.361-1.484.258-3.23.05-4.195-1.859-.29-.573-1.139-.574-1.429 0-.965 1.908-2.71 2.117-4.192 1.86.185-3.687 1.989-5.866 4.907-5.866zm-4.923 7.483c.34.048.672.072.994.072 1.614 0 2.968-.596 3.93-1.736.96 1.14 2.315 1.736 3.93 1.736.321 0 .653-.024.994-.072v.703a4.93 4.93 0 01-4.924 4.924 4.93 4.93 0 01-4.924-4.924v-.703h0zm6.592 7.011v1.196a1.668 1.668 0 01-3.335 0V16.28a6.503 6.503 0 003.335-.001zm-7.346-3.097a6.576 6.576 0 002.41 2.434v1.27c-.333.097-.678.19-1.036.286l-.5.136a5.163 5.163 0 00-2.088-2.515 6.356 6.356 0 001.214-1.611zm-7.168 4.643a3.528 3.528 0 013.264-2.198 3.532 3.532 0 013.458 2.86 8.033 8.033 0 00-6.917 0c.044-.229.11-.45.195-.662zM6.193 7.138a5.27 5.27 0 015.264-5.265 5.27 5.27 0 015.262 5.265v.828c-2.105.07-4.758-.18-6.714-1.518a.8.8 0 00-1.09.175c-.677.89-1.527 1.11-2.722 1.253v-.738h0zm0 3.18v-.83c1.287-.144 2.5-.38 3.508-1.345 2.191 1.241 4.868 1.491 7.018 1.426v.749a5.268 5.268 0 01-5.262 5.262 5.27 5.27 0 01-5.264-5.262zm6.93 6.658v.499a1.669 1.669 0 01-3.335 0v-.499a6.861 6.861 0 003.336 0zm4.987 8.15c-.175.053-.35.105-.523.155-1.977.583-4.18 1.233-4.793 3.887H6.887v-3.24a.8.8 0 10-1.601 0v3.24H2.602v-6.197c.048-2.73 1.91-3.429 4.97-4.254.259-.07.52-.14.781-.214a3.275 3.275 0 003.104 2.24c1.443 0 2.67-.94 3.101-2.24.261.074 1.275.349 1.509.415a4.473 4.473 0 00-.006.233v1.132a5.12 5.12 0 002.05 4.097v.745zm4.547.584v.003c0 .969-.796 1.41-1.535 1.41-.777 0-1.41-.633-1.41-1.41v-.521a5.076 5.076 0 002.2.164c.254-.036.503-.09.745-.164v.518zm.426-2.46c-1.076.718-2.692.754-3.768.017a3.523 3.523 0 01-1.65-2.906c2.097-1.397 4.943-1.397 7.041 0a3.524 3.524 0 01-1.623 2.89zm16.539 5.918h-2.684v-3.24a.8.8 0 10-1.602 0v3.24h-5.761c-.613-2.654-2.817-3.304-4.793-3.887-.173-.05-.348-.102-.523-.156v-.743a5.121 5.121 0 002.051-4.1v-1.118c0-.097-.003-.193-.008-.288.193-.054.387-.106.577-.158.26-.07.524-.14.786-.215a3.273 3.273 0 003.102 2.24c1.444 0 2.671-.94 3.103-2.24.26.074.523.145.78.214 3.061.825 4.924 1.524 4.972 4.254v6.197h0zm-1.577-11.007c-.957-.446-2.01-.73-2.978-.99a49.07 49.07 0 01-1.03-.286v-1.27a6.576 6.576 0 002.403-2.427c.91 1.726 2.485 2.705 3.784 3.246-.383 1.115-.923 1.515-2.18 1.727z" fill="#0A1243" stroke="#0A1243" stroke-width=".3"/><path d="M21.18 31.113a.8.8 0 100 1.602h.005a.799.799 0 00.799-.8.803.803 0 00-.803-.802z" fill="#0A1243" stroke="#0A1243" stroke-width=".3"/></svg>