<svg width="44" height="44" fill="none" xmlns="http://www.w3.org/2000/svg"><g clip-path="url(#clip0)" fill="#0A1243"><path d="M22 9.087a4.31 4.31 0 00-4.305 4.305A4.31 4.31 0 0022 17.696a4.31 4.31 0 004.304-4.304A4.31 4.31 0 0022 9.087zm0 5.74a1.436 1.436 0 01-1.435-1.435A1.436 1.436 0 1122 14.826z"/><path d="M43.925 38.763l-5.738-17.217a1.435 1.435 0 00-1.362-.98h-7.48c1.264-1.995 2.698-3.848 2.698-7.174 0-5.538-4.505-10.043-10.043-10.043-5.538 0-10.043 4.505-10.043 10.043 0 3.346 1.451 5.21 2.719 7.173H7.175c-.618 0-1.166.396-1.362.981L.075 38.763a1.435 1.435 0 001.36 1.889h41.13c.977 0 1.67-.96 1.36-1.889zM22 6.218a7.182 7.182 0 017.174 7.174 7.15 7.15 0 01-1.108 3.832l-6.008 9.486-6.09-9.434a7.144 7.144 0 01-1.142-3.884A7.182 7.182 0 0122 6.218zM3.426 37.782L8.21 23.435h8.32l4.335 6.716c.567.88 1.857.875 2.417-.01l4.247-6.706h8.263l4.783 14.347H3.426z" stroke="#fff" stroke-width=".7"/></g><defs><clipPath id="clip0"><path fill="#fff" d="M0 0h44v44H0z"/></clipPath></defs></svg>