<svg width="26" height="21" fill="none" xmlns="http://www.w3.org/2000/svg"><path d="M25.644 2.42c-.934.411-1.923.683-2.936.806a5.157 5.157 0 002.25-2.837 10.654 10.654 0 01-3.253 1.234A5.11 5.11 0 0015.561.605a5.134 5.134 0 00-2.57 5.684C8.738 6.09 4.97 4.043 2.45.951a5.053 5.053 0 00-.695 2.58A5.13 5.13 0 004.03 7.796a5.074 5.074 0 01-2.314-.639v.062c0 1.184.407 2.331 1.155 3.248a5.118 5.118 0 002.945 1.781c-.438.117-.89.178-1.344.179a5.2 5.2 0 01-.954-.09 5.148 5.148 0 001.826 2.547 5.13 5.13 0 002.961 1.013 10.253 10.253 0 01-6.342 2.188 9.94 9.94 0 01-1.219-.068 14.522 14.522 0 007.858 2.303c9.408 0 14.549-7.809 14.549-14.571 0-.216 0-.435-.017-.656a10.25 10.25 0 002.558-2.653l-.047-.02z" fill="#DADADA"/></svg>