<svg width="29" height="17" fill="none" xmlns="http://www.w3.org/2000/svg"><path fill-rule="evenodd" clip-rule="evenodd" d="M25.496 11.221s2.26 2.236 2.818 3.27c.01.016.02.032.025.05.228.382.284.681.172.903-.189.365-.827.548-1.044.564h-3.993c-.278 0-.856-.073-1.56-.56-.538-.377-1.073-.997-1.591-1.603-.774-.9-1.444-1.682-2.121-1.682a.763.763 0 00-.252.042c-.512.163-1.163.895-1.163 2.845 0 .61-.481.958-.818.958H14.14c-.623 0-3.867-.219-6.743-3.258C3.872 9.029.707 1.564.675 1.498.478 1.015.892.752 1.34.752h4.032c.54 0 .717.327.84.621.142.338.67 1.687 1.536 3.204 1.403 2.466 2.265 3.47 2.954 3.47.13 0 .256-.033.369-.098.9-.495.732-3.715.69-4.379 0-.129-.002-1.438-.463-2.07-.33-.454-.89-.63-1.23-.695a1.46 1.46 0 01.53-.452C11.215.045 12.328 0 13.433 0h.614c1.198.017 1.508.094 1.944.204.878.21.894.78.818 2.72a45.629 45.629 0 00-.047 1.914c0 .157-.006.332-.006.51-.027.995-.062 2.117.64 2.578a.572.572 0 00.303.086c.243 0 .97 0 2.944-3.395.867-1.5 1.537-3.267 1.583-3.4.04-.075.157-.283.3-.367a.668.668 0 01.33-.079h4.742c.517 0 .868.079.936.275.115.318-.022 1.288-2.188 4.222-.364.489-.684.912-.965 1.281-1.963 2.582-1.963 2.712.116 4.672z" fill="#DADADA"/></svg>