<svg width="25" height="24" fill="none" xmlns="http://www.w3.org/2000/svg"><path d="M17.851 14.383c-.3-.152-1.762-.867-2.035-.97-.273-.097-.471-.148-.67.153-.195.293-.768.964-.943 1.16-.176.196-.348.211-.643.078-.3-.152-1.26-.465-2.398-1.488-.889-.793-1.48-1.769-1.657-2.07-.175-.297-.02-.465.13-.613.135-.137.3-.344.451-.524.145-.18.191-.3.296-.495.098-.211.048-.376-.026-.524-.075-.149-.671-1.62-.92-2.207-.238-.582-.487-.508-.67-.508-.172-.016-.371-.016-.57-.016-.198 0-.522.075-.795.36-.273.3-1.045 1.019-1.045 2.472 0 1.457 1.068 2.867 1.216 3.078.152.195 2.101 3.195 5.091 4.484.713.301 1.267.481 1.7.63.713.226 1.364.195 1.878.12.57-.093 1.762-.723 2.012-1.425.254-.707.254-1.293.18-1.426-.074-.136-.269-.21-.57-.343l-.012.074zM12.43 21.75h-.016a9.97 9.97 0 01-5.048-1.38l-.359-.214-3.742.977 1.006-3.649-.242-.375a9.89 9.89 0 01-1.512-5.258c0-5.445 4.448-9.886 9.92-9.886a9.835 9.835 0 017.01 2.91 9.796 9.796 0 012.903 6.992c-.007 5.441-4.451 9.883-9.917 9.883h-.003zm8.44-18.3C18.59 1.245 15.597 0 12.412 0 5.845 0 .496 5.336.493 11.894c0 2.094.545 4.137 1.59 5.946L.392 24l6.322-1.652a12.053 12.053 0 005.7 1.449h.004c6.572 0 11.92-5.337 11.924-11.899 0-3.175-1.236-6.164-3.489-8.41l.015-.039z" fill="#DADADA"/></svg>