<svg width="13" height="14" viewBox="0 0 13 14" fill="none" xmlns="http://www.w3.org/2000/svg">
<path fill-rule="evenodd" clip-rule="evenodd" d="M12.1259 10.383C11.7267 9.90956 11.0784 9.2235 10.5234 9.15849C10.1857 9.11896 9.79765 9.3825 9.41521 9.6311C9.34058 9.66623 8.76411 9.9895 8.69415 10.0088C8.32476 10.1081 7.53655 10.1371 7.05989 9.72772C6.60095 9.33243 5.87523 8.60068 5.28943 7.93043C4.72975 7.23998 4.14302 6.40985 3.84266 5.90035C3.52924 5.37241 3.75498 4.67405 3.949 4.36659C3.98445 4.31125 4.41353 3.89575 4.50961 3.79912L4.5236 3.81493C4.879 3.53383 5.25119 3.24834 5.29316 2.93912C5.36219 2.42436 4.80344 1.67505 4.40421 1.20069C4.00497 0.72545 3.38652 -0.106435 2.5442 0.0112763C2.22705 0.0551984 1.95374 0.159733 1.68416 0.309947L1.6767 0.302041C1.66159 0.31264 1.64666 0.323476 1.63193 0.334543L1.60861 0.345963L1.6114 0.349477C1.45656 0.461917 1.01441 0.772886 0.964042 0.815051C0.417422 1.27272 -0.405307 2.35057 0.230862 4.28929C0.702858 5.72993 1.70935 7.42181 3.08056 9.13302L3.0731 9.13917C3.14026 9.22174 3.20929 9.29641 3.27925 9.37635C3.34455 9.45804 3.40891 9.53886 3.47607 9.61968L3.4854 9.61353C4.94057 11.2641 6.46663 12.5835 7.85929 13.3618C9.73422 14.4089 11.0672 13.9372 11.6828 13.5621C11.7407 13.5261 12.181 13.2037 12.3302 13.0974L12.3339 13.1009C12.3395 13.0957 12.3433 13.0886 12.3507 13.0834C12.3642 13.0738 12.3775 13.0642 12.3908 13.0544L12.3852 13.0474C12.611 12.8418 12.7919 12.6222 12.9169 12.3455C13.2443 11.6173 12.5252 10.8583 12.1259 10.383Z" fill="#D9D9D9"/>
</svg>
