<svg width="23" height="22" viewBox="0 0 23 22" fill="none" xmlns="http://www.w3.org/2000/svg">
<path d="M16.4689 1H6.48962C3.73393 1 1.5 3.23858 1.5 6V16C1.5 18.7614 3.73393 21 6.48962 21H16.4689C19.2246 21 21.4585 18.7614 21.4585 16V6C21.4585 3.23858 19.2246 1 16.4689 1Z" stroke="#DADADA" stroke-width="2" stroke-linecap="round" stroke-linejoin="round"/>
<path d="M15.4713 10.3698C15.5945 11.2021 15.4526 12.052 15.066 12.7988C14.6793 13.5456 14.0674 14.1512 13.3175 14.5295C12.5675 14.9077 11.7177 15.0394 10.8887 14.9057C10.0598 14.7721 9.29405 14.3799 8.70038 13.785C8.1067 13.19 7.71533 12.4227 7.58195 11.592C7.44856 10.7614 7.57995 9.9097 7.95742 9.15818C8.33489 8.40667 8.93922 7.79355 9.68446 7.40605C10.4297 7.01856 11.2779 6.8764 12.1084 6.99981C12.9555 7.1257 13.7398 7.52128 14.3454 8.12812C14.951 8.73496 15.3457 9.52089 15.4713 10.3698Z" stroke="#DADADA" stroke-width="2" stroke-linecap="round" stroke-linejoin="round"/>
<path d="M16.9678 5.5H16.9778" stroke="#DADADA" stroke-width="2" stroke-linecap="round" stroke-linejoin="round"/>
</svg>
