<svg width="21" height="21" viewBox="0 0 21 21" fill="none" xmlns="http://www.w3.org/2000/svg">
<path d="M9.52035 15.875C11.2407 15.875 12.8906 15.1902 14.107 13.9713C15.3235 12.7523 16.0069 11.099 16.0069 9.37512C16.0069 7.65123 15.3235 5.99795 14.107 4.77898C12.8906 3.56001 11.2407 2.87519 9.52035 2.87519C7.80001 2.87519 6.15014 3.56001 4.93368 4.77898C3.71722 5.99795 3.03382 7.65123 3.03382 9.37512C3.03382 11.099 3.71722 12.7523 4.93368 13.9713C6.15014 15.1902 7.80001 15.875 9.52035 15.875ZM20.2231 18.5682C20.3263 18.6682 20.4086 18.7878 20.4651 18.92C20.5217 19.0522 20.5514 19.1944 20.5526 19.3382C20.5537 19.4821 20.5263 19.6247 20.4718 19.7578C20.4174 19.8909 20.337 20.0118 20.2354 20.1134C20.1339 20.2151 20.0131 20.2954 19.8802 20.3498C19.7473 20.4042 19.6049 20.4315 19.4614 20.4301C19.3178 20.4288 19.176 20.3988 19.0441 20.3419C18.9123 20.2851 18.793 20.2024 18.6934 20.0989L14.8231 16.2206C13.0852 17.5724 10.8985 18.2098 8.70819 18.0029C6.51786 17.796 4.48853 16.7605 3.03333 15.107C1.57813 13.4536 0.806432 11.3066 0.875341 9.10312C0.944251 6.89962 1.84858 4.80526 3.40425 3.24639C4.95991 1.68752 7.04996 0.781316 9.24891 0.712264C11.4479 0.643212 13.5904 1.4165 15.2405 2.87471C16.8905 4.33292 17.9239 6.36643 18.1304 8.56128C18.3368 10.7561 17.7008 12.9473 16.3518 14.6888L20.2231 18.5682Z" fill="#4782C6" stroke="#4782C6" stroke-width="0.3"/>
</svg>
