<svg width="26" height="21" viewBox="0 0 26 21" fill="none" xmlns="http://www.w3.org/2000/svg">
<path d="M25.6437 2.41981C24.71 2.83114 23.721 3.10279 22.7084 3.22605C23.7758 2.58411 24.5748 1.57634 24.9577 0.389364C23.9481 0.976079 22.8493 1.39281 21.705 1.62294C20.9356 0.799093 19.9163 0.252744 18.8053 0.0686629C17.6943 -0.115418 16.5538 0.0730609 15.5606 0.604857C14.5675 1.13665 13.7772 1.98204 13.3125 3.00984C12.8478 4.03765 12.7345 5.19042 12.9904 6.2893C8.73904 6.09009 4.97031 4.04323 2.44977 0.951077C1.99094 1.73301 1.75097 2.62444 1.75512 3.53152C1.7545 4.37476 1.96168 5.20511 2.35827 5.94883C2.75487 6.69255 3.3286 7.32663 4.02852 7.79476C3.21741 7.77019 2.42397 7.55132 1.71458 7.15648V7.2182C1.71433 8.4018 2.12249 9.54908 2.86988 10.4656C3.61726 11.3821 4.6579 12.0115 5.81543 12.2471C5.37696 12.3644 4.9252 12.4246 4.47135 12.426C4.14313 12.426 3.82971 12.3939 3.51708 12.3361C3.8465 13.3546 4.48461 14.2449 5.34259 14.883C6.20057 15.5211 7.23574 15.8753 8.304 15.8962C6.49403 17.3166 4.26068 18.0872 1.96172 18.0845C1.55453 18.0861 1.14761 18.0631 0.743164 18.0157C3.08836 19.5216 5.81571 20.3209 8.60104 20.3188C18.0088 20.3188 23.1497 12.5103 23.1497 5.7479C23.1497 5.53228 23.1497 5.31275 23.1333 5.09244C24.1389 4.37022 25.0056 3.47132 25.6913 2.43934L25.6437 2.41981Z" fill="#DADADA"/>
</svg>
