<svg width="29" height="17" viewBox="0 0 29 17" fill="none" xmlns="http://www.w3.org/2000/svg">
<path fill-rule="evenodd" clip-rule="evenodd" d="M25.496 11.2211C25.496 11.2211 27.7551 13.457 28.3139 14.4916C28.3248 14.5065 28.3333 14.523 28.3391 14.5406C28.5668 14.9228 28.6227 15.2224 28.5109 15.4436C28.3223 15.809 27.6838 15.9924 27.4673 16.0078H23.4744C23.1964 16.0078 22.618 15.935 21.9139 15.4478C21.376 15.0712 20.8409 14.451 20.3226 13.8448C19.5486 12.9446 18.8794 12.1634 18.2018 12.1634C18.1163 12.1632 18.0313 12.1774 17.9504 12.2054C17.4376 12.3678 16.7866 13.1 16.7866 15.0502C16.7866 15.6606 16.306 16.0078 15.9693 16.0078H14.1405C13.5174 16.0078 10.2734 15.7894 7.39679 12.75C3.87195 9.02872 0.706157 1.56382 0.675421 1.49802C0.478432 1.01501 0.891969 0.75181 1.33904 0.75181H5.37102C5.91169 0.75181 6.08772 1.07941 6.21067 1.37342C6.35317 1.71082 6.88127 3.06044 7.74746 4.57666C9.15013 7.04349 10.0121 8.04731 10.7009 8.04731C10.8303 8.04769 10.9575 8.01389 11.0697 7.94931C11.9694 7.4537 11.8018 4.23366 11.7599 3.57005C11.7599 3.44125 11.7585 2.13223 11.2975 1.49942C10.9677 1.04581 10.4061 0.869411 10.0666 0.80501C10.1574 0.673409 10.3502 0.471806 10.5975 0.352804C11.2136 0.0448004 12.3271 0 13.4322 0H14.0455C15.2442 0.0168002 15.5544 0.0938011 15.9903 0.204403C16.8676 0.414405 16.8844 0.984213 16.8075 2.92464C16.7852 3.47905 16.7614 4.10345 16.7614 4.83846C16.7614 4.99527 16.7545 5.17027 16.7545 5.34807C16.7279 6.34348 16.693 7.4649 17.3943 7.92551C17.4853 7.98229 17.5903 8.01236 17.6975 8.01231C17.9406 8.01231 18.6685 8.01231 20.6425 4.61726C21.5087 3.11784 22.1793 1.34962 22.2254 1.21662C22.2646 1.14242 22.3819 0.933812 22.5244 0.849811C22.6258 0.795764 22.7393 0.768765 22.8541 0.77141H27.5972C28.1141 0.77141 28.4648 0.849812 28.5333 1.04581C28.6478 1.36362 28.5109 2.33383 26.3454 5.26827C25.9808 5.75688 25.6609 6.17968 25.3801 6.54929C23.4172 9.13092 23.4172 9.26112 25.496 11.2211Z" fill="#DADADA"/>
</svg>
