<svg width="25" height="24" viewBox="0 0 25 24" fill="none" xmlns="http://www.w3.org/2000/svg">
<path d="M17.8512 14.3827C17.5511 14.2305 16.0894 13.5157 15.8162 13.4137C15.543 13.3162 15.3447 13.2652 15.1456 13.566C14.951 13.8592 14.3777 14.5305 14.2026 14.7262C14.0274 14.922 13.8553 14.937 13.5597 14.8043C13.2595 14.652 12.3008 14.3392 11.1624 13.3162C10.2733 12.5235 9.68124 11.547 9.50535 11.2463C9.33022 10.9493 9.48589 10.7812 9.63408 10.6327C9.7703 10.4963 9.93421 10.2893 10.0861 10.1093C10.2306 9.92925 10.277 9.8085 10.3825 9.6135C10.4798 9.40275 10.4297 9.2385 10.3556 9.09C10.2815 8.9415 9.68498 7.46925 9.43575 6.88275C9.19774 6.30075 8.94851 6.375 8.76515 6.375C8.59375 6.35925 8.39467 6.35925 8.19633 6.35925C7.998 6.35925 7.67392 6.4335 7.40074 6.7185C7.12756 7.01925 6.35592 7.73775 6.35592 9.19125C6.35592 10.6485 7.42394 12.0585 7.57213 12.2692C7.72407 12.4642 9.673 15.4642 12.663 16.7535C13.3763 17.0542 13.9301 17.2342 14.3627 17.3827C15.076 17.6092 15.7271 17.5777 16.2413 17.5035C16.8101 17.4097 18.0031 16.7805 18.2531 16.0778C18.5068 15.3705 18.5068 14.7847 18.4327 14.652C18.3586 14.5155 18.1641 14.4412 17.8639 14.3085L17.8512 14.3827ZM12.4288 21.75H12.413C10.643 21.75 8.89313 21.2692 7.36482 20.3708L7.00631 20.1562L3.26411 21.1327L4.27002 17.484L4.02827 17.109C3.03993 15.5343 2.5156 13.7118 2.51567 11.8515C2.51567 6.4065 6.96365 1.965 12.4362 1.965C15.0872 1.965 17.5743 3 19.4454 4.875C20.3684 5.78895 21.1006 6.87794 21.5992 8.07844C22.0977 9.27895 22.3528 10.5669 22.3493 11.8673C22.3418 17.3085 17.8976 21.75 12.4325 21.75H12.4288ZM20.8682 3.44925C18.5914 1.24575 15.5977 0 12.413 0C5.84473 0 0.496383 5.33625 0.492641 11.8942C0.492641 13.9882 1.03825 16.0312 2.08308 17.8395L0.391602 24L6.71442 22.3478C8.466 23.2941 10.4239 23.7918 12.4138 23.7967H12.4175C18.9896 23.7967 24.3379 18.4605 24.3417 11.898C24.3417 8.7225 23.106 5.73375 20.8532 3.4875L20.8682 3.44925Z" fill="#DADADA"/>
</svg>
