<svg width="42" height="44" viewBox="0 0 42 44" fill="none" xmlns="http://www.w3.org/2000/svg">
<g filter="url(#filter0_d)">
<path d="M9.84668 19.3662H27.3336V21.4756H9.84668V19.3662Z" fill="#4782C6"/>
<path d="M9.84668 24.2075H27.3336V26.3169H9.84668V24.2075Z" fill="#4782C6"/>
<path d="M9.84668 29.0491H27.3336V31.1584H9.84668V29.0491Z" fill="#4782C6"/>
<path d="M32.4233 24.2076V0H4.75684V32.5245C4.75684 34.4409 6.39583 36 8.41047 36H33.8595C35.8741 36 37.5131 34.4409 37.5131 32.5245V24.2076H32.4233ZM8.41047 33.8906C7.61858 33.8906 6.97438 33.2778 6.97438 32.5245V2.10938H30.2059V32.5245C30.2059 33.0093 30.3107 33.4711 30.5 33.8906H8.41047ZM35.2956 32.5245C35.2956 33.2778 34.6514 33.8906 33.8595 33.8906C33.0676 33.8906 32.4233 33.2778 32.4233 32.5245V26.317H35.2956V32.5245Z" fill="#4782C6"/>
<path d="M12.3913 10.6639V16.6339H24.7884V10.6639L25.279 10.9439L26.4199 9.13511L18.5899 4.66626L10.7598 9.13518L11.9007 10.944L12.3913 10.6639ZM22.5709 9.39836V14.5246H19.6987V11.9482H17.4812V14.5246H14.6089V9.39836L18.5899 7.12628L22.5709 9.39836Z" fill="#4782C6"/>
</g>
<defs>
<filter id="filter0_d" x="0.756836" y="0" width="40.7563" height="44" filterUnits="userSpaceOnUse" color-interpolation-filters="sRGB">
<feFlood flood-opacity="0" result="BackgroundImageFix"/>
<feColorMatrix in="SourceAlpha" type="matrix" values="0 0 0 0 0 0 0 0 0 0 0 0 0 0 0 0 0 0 127 0"/>
<feOffset dy="4"/>
<feGaussianBlur stdDeviation="2"/>
<feColorMatrix type="matrix" values="0 0 0 0 0 0 0 0 0 0 0 0 0 0 0 0 0 0 0.25 0"/>
<feBlend mode="normal" in2="BackgroundImageFix" result="effect1_dropShadow"/>
<feBlend mode="normal" in="SourceGraphic" in2="effect1_dropShadow" result="shape"/>
</filter>
</defs>
</svg>
