<svg width="42" height="42" viewBox="0 0 42 42" fill="none" xmlns="http://www.w3.org/2000/svg">
<g clip-path="url(#clip0)">
<path d="M41.8289 17.9123L34.7993 8.78053C34.5391 8.44279 34.0645 8.35948 33.7046 8.58827L29.166 11.4747H23.2466C23.17 11.4747 23.0938 11.4911 23.0201 11.5126L18.4305 12.8337L13.6682 11.5311L9.04079 8.58827C8.68703 8.36333 8.22112 8.43959 7.95804 8.76579L0.182695 18.3968C-0.0967238 18.7428 -0.0505812 19.2482 0.286516 19.5382L4.3618 23.0453L8.01796 27.9723C6.94867 29.1115 6.9695 30.9081 8.08205 32.021C8.5752 32.5138 9.20229 32.7923 9.84733 32.857C9.82489 33.0031 9.81336 33.1515 9.81336 33.3021C9.81336 34.0795 10.1162 34.8104 10.6657 35.3599C11.2156 35.9098 11.9465 36.2126 12.7239 36.2126C12.7344 36.2126 12.7447 36.212 12.7549 36.2117C12.7546 36.2315 12.7537 36.2511 12.7537 36.2709C12.7537 37.0483 13.0565 37.7792 13.606 38.3291C14.1559 38.8786 14.8868 39.1814 15.6642 39.1814C15.8177 39.1814 15.9695 39.1689 16.1186 39.1459C16.1817 39.7932 16.4608 40.4231 16.9555 40.9179C17.5227 41.4854 18.268 41.769 19.0134 41.769C19.7587 41.769 20.504 41.4854 21.0715 40.9179L21.5166 40.4728L21.7034 40.6234C22.2661 41.1685 22.9967 41.4408 23.7273 41.4408C24.4726 41.4408 25.2179 41.1572 25.7851 40.5898C26.3641 40.0107 26.6477 39.2465 26.6359 38.4861C27.3959 38.4976 28.1605 38.2144 28.7395 37.6357C29.3179 37.057 29.6015 36.2934 29.5903 35.5333C30.3821 35.5458 31.1332 35.2417 31.6936 34.6813C32.2726 34.1022 32.5562 33.338 32.5444 32.5776C33.3051 32.5891 34.069 32.3059 34.648 31.7269C35.6362 30.7386 35.7634 29.2111 35.0306 28.0835L37.7001 22.4926L41.7136 19.0389C42.0452 18.7534 42.0959 18.2587 41.8289 17.9123ZM8.77739 10.3728L12.1048 12.4886L4.86649 21.307L1.96591 18.8105L8.77739 10.3728ZM9.24683 29.0695L10.2511 28.0652C10.2815 28.0348 10.3136 28.006 10.3462 27.979C10.5427 27.8188 10.7804 27.7233 11.0323 27.7006C11.0393 27.7 11.0467 27.7 11.0538 27.6996C11.0897 27.6967 11.1255 27.6948 11.1617 27.6951C11.5059 27.7 11.8257 27.8406 12.0628 28.0909C12.5281 28.5827 12.5031 29.3864 12.0071 29.8824L11.0333 30.8562C10.5407 31.3487 9.73934 31.3487 9.24683 30.8562C8.75432 30.3634 8.75432 29.562 9.24683 29.0695ZM11.8305 34.1952C11.5918 33.9568 11.4604 33.6395 11.4604 33.3021C11.4604 32.9647 11.5918 32.6475 11.8305 32.4087L13.7778 30.4615C14.1508 30.0885 14.7372 29.9863 15.214 30.2134C15.7055 30.4477 15.982 30.9812 15.9099 31.5179C15.8715 31.8044 15.7382 32.0742 15.5338 32.279L13.6172 34.1952C13.3785 34.4339 13.0613 34.5653 12.7239 34.5653C12.3864 34.5653 12.0692 34.4339 11.8305 34.1952ZM14.7708 37.164C14.5321 36.9256 14.4007 36.6084 14.4007 36.2709C14.4007 35.9335 14.5321 35.6163 14.7708 35.3776L16.7178 33.4303C17.1167 33.0317 17.7566 32.9458 18.245 33.23C18.691 33.4896 18.9246 33.9991 18.848 34.5066C18.806 34.7857 18.6734 35.0482 18.4737 35.2478L16.5575 37.164C16.3188 37.4027 16.0016 37.5341 15.6642 37.5341C15.3268 37.5341 15.0095 37.4027 14.7708 37.164ZM18.12 39.7531C17.6275 39.2606 17.6275 38.4592 18.12 37.9667L19.1242 36.9624C19.1547 36.932 19.1864 36.9035 19.2191 36.8766C19.22 36.8759 19.2207 36.8753 19.2213 36.8746C19.3847 36.742 19.5767 36.6532 19.7814 36.6144C19.7862 36.6138 19.7911 36.6132 19.7959 36.6125C19.8311 36.6061 19.867 36.601 19.9029 36.5978C19.9173 36.5965 19.9317 36.5965 19.9465 36.5955C19.9759 36.5939 20.0051 36.592 20.0349 36.5923C20.3787 36.5971 20.6988 36.7375 20.936 36.9881C20.9651 37.0188 20.9924 37.0509 21.0174 37.0839C21.3961 37.579 21.3452 38.3144 20.8751 38.7847L19.9064 39.7534C19.4139 40.2459 18.6125 40.2456 18.12 39.7531ZM33.4832 30.5621C32.9907 31.0549 32.1893 31.0546 31.6968 30.5621C31.6789 30.5441 31.66 30.5275 31.6407 30.5118L26.3452 25.1605C26.0251 24.8372 25.5038 24.8346 25.1804 25.1547C24.8571 25.4745 24.8546 25.9959 25.1744 26.3192L30.5272 31.7278C30.5279 31.7285 30.5285 31.7291 30.5291 31.7297C31.0216 32.2222 31.0216 33.024 30.5291 33.5165C30.2904 33.7552 29.9732 33.8866 29.6358 33.8866C29.298 33.8866 28.9808 33.7552 28.7424 33.5165L25.1615 29.8985C24.8417 29.5751 24.3204 29.5726 23.9971 29.8924C23.6738 30.2125 23.6712 30.7338 23.991 31.0571L27.5171 34.6197C27.535 34.6422 27.5542 34.6636 27.5747 34.6841C28.0672 35.1767 28.0672 35.9784 27.5747 36.4709C27.0819 36.9634 26.2802 36.9631 25.7877 36.4706L23.8333 34.4957C23.5132 34.1724 22.9919 34.1695 22.6686 34.4896C22.3452 34.8094 22.3427 35.3308 22.6625 35.6541L24.5623 37.5735C24.5803 37.5959 24.5995 37.6177 24.6203 37.6382C25.1128 38.1307 25.1128 38.9325 24.6203 39.425C24.1278 39.9178 23.3264 39.9175 22.8339 39.425C22.7772 39.3683 22.7105 39.3247 22.6471 39.276C22.5933 39.235 22.5792 39.2064 22.6061 39.1411C22.6333 39.0747 22.674 39.0148 22.7012 38.9482C22.7314 38.8738 22.7557 38.7972 22.7794 38.7203C22.9057 38.3134 22.9428 37.8757 22.8861 37.4533C22.7772 36.643 22.3315 35.9117 21.656 35.449C21.291 35.1994 20.8687 35.0357 20.431 34.9741C20.6431 34.0385 20.3883 33.024 19.7257 32.3238C19.1803 31.7477 18.4436 31.4244 17.6512 31.4135C17.6224 31.4131 17.5935 31.4131 17.5644 31.4135C17.582 30.6572 17.307 29.9058 16.7857 29.355C16.24 28.7789 15.5033 28.4555 14.7112 28.4446C14.4757 28.4414 14.2379 28.4664 14.0085 28.5193C13.9104 27.8371 13.5666 27.2058 13.0459 26.7543C12.5284 26.3064 11.8776 26.0577 11.1845 26.0481C10.4549 26.0375 9.73806 26.3067 9.1962 26.796L6.01268 22.5063L13.6288 13.2278L16.0561 13.8918L12.886 19.4856C12.5028 20.162 12.406 20.9471 12.6133 21.6963C12.8206 22.4458 13.3071 23.0694 13.9835 23.4526C14.0258 23.4766 14.0684 23.4994 14.1117 23.5212C14.1149 23.5228 14.1181 23.5244 14.1216 23.526C14.2354 23.5827 14.3523 23.6314 14.4709 23.6724C15.023 23.8637 15.6193 23.8845 16.1945 23.7256C16.9437 23.5183 17.5672 23.0315 17.9505 22.3554L20.0106 18.7201L23.6888 18.9809L33.4835 28.7753C33.9757 29.2682 33.9757 30.0696 33.4832 30.5621ZM33.8245 26.787L24.636 17.5989C24.6187 17.5813 24.6005 17.5646 24.5816 17.5489C24.4492 17.4387 24.2851 17.372 24.1121 17.3598L19.6084 17.0404C19.2969 17.0189 18.9874 17.1846 18.8336 17.456L16.5175 21.5434C16.3512 21.837 16.0804 22.0481 15.7552 22.1382C15.4303 22.2282 15.0893 22.1859 14.7955 22.0196C14.502 21.8533 14.2908 21.5825 14.2008 21.2573C14.1107 20.9321 14.1527 20.5911 14.3193 20.2976L17.4112 14.8409L18.6641 14.4804C18.6724 14.4779 18.6804 14.4747 18.6888 14.4721L23.3649 13.1218H29.0148L36.0682 22.0882L33.8245 26.787ZM37.1471 20.7955L30.6243 12.4992L33.9533 10.3821L40.0483 18.299L37.1471 20.7955Z" fill="#0A1243" stroke="#0A1243" stroke-width="0.4"/>
<path d="M25.4446 9.92842C25.6555 9.92842 25.8663 9.84799 26.0272 9.68713L31.6527 4.06158C31.9744 3.73987 31.9744 3.21852 31.6527 2.8968C31.331 2.57509 30.8097 2.57509 30.4879 2.8968L24.8624 8.52235C24.5407 8.84407 24.5407 9.36542 24.8624 9.68713C25.0232 9.84799 25.2341 9.92842 25.4446 9.92842Z" fill="#0A1243" stroke="#0A1243" stroke-width="0.4"/>
<path d="M15.9733 9.68713C16.1341 9.84799 16.345 9.92842 16.5558 9.92842C16.7663 9.92842 16.9772 9.84799 17.1381 9.68713C17.4598 9.36542 17.4598 8.84407 17.1381 8.52235L11.5125 2.8968C11.1908 2.57509 10.6694 2.57509 10.3477 2.8968C10.026 3.21852 10.026 3.73987 10.3477 4.06158L15.9733 9.68713Z" fill="#0A1243" stroke="#0A1243" stroke-width="0.4"/>
<path d="M21.0003 9.92836C21.455 9.92836 21.8238 9.55954 21.8238 9.10484V4.44925C21.8238 3.99455 21.455 3.62573 21.0003 3.62573C20.5456 3.62573 20.1768 3.99455 20.1768 4.44925V9.10484C20.1768 9.55954 20.5456 9.92836 21.0003 9.92836Z" fill="#0A1243" stroke="#0A1243" stroke-width="0.4"/>
<path d="M20.2401 1.46438C20.3708 1.78129 20.6967 1.98925 21.0405 1.97131C21.3802 1.95368 21.6785 1.72425 21.7836 1.40093C21.889 1.07505 21.7743 0.703667 21.5013 0.496026C21.2228 0.283898 20.8345 0.272042 20.5432 0.464623C20.2183 0.679314 20.0924 1.10677 20.2401 1.46438Z" fill="#0A1243" stroke="#0A1243" stroke-width="0.4"/>
</g>
<defs>
<clipPath id="clip0">
<rect width="42" height="42" fill="white"/>
</clipPath>
</defs>
</svg>
