<svg width="43" height="33" viewBox="0 0 43 33" fill="none" xmlns="http://www.w3.org/2000/svg">
<path d="M10.1134 11.7798C9.90389 11.7798 9.69457 11.8615 9.53746 12.0241C9.23012 12.3421 9.23877 12.8491 9.55684 13.1564C10.604 14.1684 12.3078 14.1684 13.355 13.1564C13.6731 12.8491 13.6817 12.3421 13.3744 12.0241C13.0671 11.7061 12.5601 11.6975 12.2421 12.0048C11.8086 12.4237 11.1033 12.4237 10.6698 12.0048C10.5144 11.8545 10.3138 11.7798 10.1134 11.7798Z" fill="#0A1243" stroke="#0A1243" stroke-width="0.3"/>
<path d="M41.9764 16.1355C42.077 15.7292 41.8478 15.3139 41.4503 15.1826C39.5534 14.5559 37.2921 13.1431 37.2921 9.97074V8.29102C37.2921 5.70057 36.6987 3.67331 35.5284 2.2657C34.3958 0.903413 32.7492 0.18335 30.7667 0.18335C28.8674 0.18335 27.2512 0.900609 26.0926 2.25769C24.8815 3.67636 24.2413 5.76263 24.2413 8.29102V9.97074C24.2413 11.7277 23.5512 13.1237 22.1892 14.1252C21.8644 14.0602 21.5288 14.0256 21.1852 14.0256C18.9951 14.0256 17.1212 15.4069 16.3901 17.344C16.1763 17.284 15.056 16.9821 14.7253 16.8852V16.3524C16.8649 15.1888 18.3204 12.9202 18.3204 10.318V7.13781C18.3204 3.35188 15.2414 0.271756 11.4568 0.271756C7.67091 0.271756 4.59086 3.35188 4.59086 7.13781V10.318C4.59086 12.9198 6.04636 15.188 8.18613 16.3518V16.8851C7.85541 16.982 7.51187 17.0749 7.15633 17.171C4.44416 17.9022 1.06807 18.8118 1 22.9511V29.9691C1 30.4112 1.35875 30.7699 1.80078 30.7699H12.6289V31.9085C12.6289 31.9105 12.6285 31.9124 12.6285 31.9144C12.6285 32.3567 12.9871 32.7152 13.4293 32.7152H17.5855C18.0277 32.7152 18.3862 32.3567 18.3862 31.9144C18.3862 31.4721 18.0277 31.1136 17.5855 31.1136H14.2303V30.6339C14.24 30.0477 14.3176 29.5672 14.457 29.1684C14.9607 27.7254 16.2643 27.341 18.0397 26.8173C18.1229 26.7928 18.2072 26.768 18.2917 26.7429C18.7134 27.8978 19.8228 28.7246 21.1219 28.7246C22.5288 28.7246 23.6629 27.9227 24.0828 26.7447C24.1654 26.7691 24.2476 26.7934 24.329 26.8173C26.5952 27.4859 28.0927 27.9271 28.1383 30.6338V31.1135H24.7765C24.3342 31.1135 23.9757 31.472 23.9757 31.9143C23.9757 32.3566 24.3342 32.7151 24.7765 32.7151H28.9394C29.3817 32.7151 29.7402 32.3566 29.7402 31.9143C29.7402 31.9123 29.7399 31.9103 29.7399 31.9083V30.7697H40.4227C40.865 30.7697 41.2235 30.4112 41.2235 29.969V22.9639C41.2235 22.9595 41.2235 22.9551 41.2234 22.9507C41.1958 21.2736 40.6251 20.1268 39.7757 19.3072C40.9285 18.7668 41.5634 17.8018 41.9764 16.1355ZM30.7667 1.78483C32.2791 1.78483 33.4668 2.29109 34.2969 3.2895C35.1298 4.29136 35.5916 5.75735 35.6754 7.65047C34.1922 7.90768 32.4464 7.69988 31.4813 5.7913C31.1908 5.2181 30.3422 5.21738 30.052 5.7913C29.0872 7.69916 27.3424 7.90752 25.8596 7.65079C26.0449 3.96416 27.8489 1.78483 30.7667 1.78483ZM25.8429 9.26829C26.1836 9.31578 26.5152 9.33972 26.8365 9.33972C28.451 9.33972 29.8055 8.74394 30.7667 7.60387C31.7278 8.74402 33.0823 9.33972 34.697 9.33972C35.0182 9.33972 35.3498 9.31578 35.6906 9.26829V9.97082C35.6906 12.6859 33.4818 14.8948 30.7668 14.8948C28.0518 14.8948 25.843 12.6859 25.843 9.97082V9.26829H25.8429ZM32.4355 16.279V17.4752C32.4355 18.3942 31.6869 19.1418 30.7667 19.1418C29.8477 19.1418 29.1001 18.3942 29.1001 17.4752V16.2796C29.6323 16.4205 30.1907 16.4964 30.7667 16.4964C31.3435 16.4963 31.9026 16.4202 32.4355 16.279ZM25.0893 13.1816C25.6622 14.1907 26.4963 15.0326 27.4986 15.6156V16.8851C27.1656 16.9827 26.8205 17.0757 26.4627 17.1722C26.298 17.2165 26.1308 17.2618 25.9629 17.3079C25.5565 16.2599 24.8175 15.3776 23.8755 14.7927C24.3722 14.3118 24.7782 13.7729 25.0893 13.1816ZM17.9212 17.8253C18.4457 16.5376 19.711 15.6271 21.1852 15.6271C22.8979 15.6271 24.3276 16.8594 24.6431 18.487C23.5758 17.9762 22.3885 17.7032 21.1847 17.7032C19.9804 17.7032 18.7928 17.9765 17.7256 18.4877C17.7696 18.2583 17.8352 18.0366 17.9212 17.8253ZM6.19251 7.13781C6.19251 4.23498 8.55409 1.87332 11.4568 1.87332C14.3584 1.87332 16.7189 4.23498 16.7189 7.13781V7.96638C14.6138 8.03669 11.9609 7.78645 10.0048 6.44754C9.65268 6.20659 9.17357 6.28394 8.91524 6.62331C8.2381 7.51306 7.38775 7.73376 6.19259 7.87581V7.13781H6.19251ZM6.19251 10.318V9.48771C7.48048 9.34373 8.69359 9.10846 9.70081 8.14343C11.8921 9.38408 14.5688 9.63441 16.7189 9.56883V10.318C16.7189 13.2197 14.3583 15.5803 11.4568 15.5803C8.55409 15.5803 6.19251 13.2197 6.19251 10.318ZM13.1237 16.976V17.468C13.1237 17.4704 13.1233 17.4727 13.1233 17.4751C13.1233 18.3941 12.3757 19.1418 11.4568 19.1418C10.5366 19.1418 9.78793 18.3941 9.78793 17.4751C9.78793 17.4734 9.78769 17.4717 9.78769 17.4701V16.9757C10.3223 17.1096 10.8812 17.1818 11.4568 17.1818C12.0316 17.1819 12.5899 17.1099 13.1237 16.976ZM18.1102 25.1251C17.9348 25.1788 17.7595 25.2308 17.5865 25.2813C15.6102 25.8642 13.4064 26.5137 12.7938 29.1683H6.8871V25.9284C6.8871 25.4861 6.52859 25.1276 6.08632 25.1276C5.64405 25.1276 5.28554 25.4861 5.28554 25.9284V29.1683H2.60156V22.971C2.64961 20.2404 4.51223 19.5421 7.57281 18.7173C7.83058 18.6476 8.09252 18.5767 8.35309 18.5031C8.78527 19.8029 10.0129 20.7433 11.4568 20.7433C12.8998 20.7433 14.1266 19.8029 14.5584 18.503C14.8192 18.5766 15.8328 18.8518 16.0666 18.9183C16.0626 18.9951 16.061 19.0728 16.061 19.1505V20.2828C16.061 21.9556 16.8666 23.4443 18.1102 24.3796V25.1251ZM22.657 25.7099C22.657 25.7109 22.6569 25.7118 22.6569 25.7127C22.6569 26.6816 21.8612 27.1229 21.122 27.1229C20.3445 27.1229 19.7119 26.4903 19.7119 25.7127C19.7119 25.712 19.7118 25.7113 19.7118 25.7105V25.1916C19.9064 25.25 20.1058 25.2981 20.31 25.3325C20.5942 25.3822 20.8865 25.4078 21.1852 25.4078C21.4319 25.4078 21.6745 25.3902 21.9115 25.3557C22.1662 25.3205 22.4152 25.2653 22.657 25.1924V25.7099ZM23.0831 23.2505C22.0067 23.9681 20.3911 24.0039 19.3154 23.2673C18.3439 22.6565 17.6919 21.5845 17.6651 20.3606C19.762 18.9636 22.6075 18.9637 24.7061 20.361C24.6794 21.5729 24.0394 22.6368 23.0831 23.2505ZM39.622 29.1681H36.938V25.9284C36.938 25.4861 36.5795 25.1276 36.1372 25.1276C35.695 25.1276 35.3365 25.4861 35.3365 25.9284V29.1681H29.5748C28.9617 26.5137 26.7583 25.8641 24.7823 25.2813C24.6094 25.2308 24.434 25.1788 24.2586 25.1251V24.382C25.5038 23.4459 26.3102 21.9564 26.3102 20.2828V19.1641C26.3102 19.0673 26.307 18.9712 26.3016 18.8756C26.495 18.8222 26.6887 18.7699 26.8792 18.7185C27.1389 18.6486 27.4026 18.5773 27.6651 18.5032C28.0971 19.803 29.3237 20.7434 30.7666 20.7434C32.2105 20.7434 33.438 19.803 33.8703 18.5033C34.1309 18.5768 34.3927 18.6477 34.6506 18.7172C37.7113 19.5422 39.574 20.2405 39.6219 22.9708V29.1681H39.622ZM38.0446 18.1607C37.0881 17.7155 36.0355 17.4317 35.0674 17.1707C34.7114 17.0748 34.368 16.9822 34.0371 16.8852V15.6143C35.0361 15.0326 35.8678 14.1938 36.4401 13.1885C37.3503 14.9139 38.9252 15.8931 40.2244 16.4338C39.841 17.5488 39.301 17.9489 38.0446 18.1607Z" fill="#0A1243" stroke="#0A1243" stroke-width="0.3"/>
<path d="M21.1807 31.1135C20.7384 31.1135 20.3799 31.472 20.3799 31.9143C20.3799 32.3566 20.7384 32.7151 21.1807 32.7151H21.1852C21.6275 32.7151 21.9838 32.3566 21.9838 31.9143C21.9838 31.472 21.6229 31.1135 21.1807 31.1135Z" fill="#0A1243" stroke="#0A1243" stroke-width="0.3"/>
</svg>
