<svg width="37" height="37" viewBox="0 0 37 37" fill="none" xmlns="http://www.w3.org/2000/svg">
<path d="M29.5362 17.416H19.9043V24.56H29.5363V17.416H29.5362ZM27.3683 22.392H22.0722V19.584H27.3683V22.392Z" fill="#0A1243"/>
<path d="M34.099 29.856V16.4969L36.9999 18.1717V10.6809L18.5 0L12.12 3.68352V0H4.97599V7.80808L0.000144531 10.6809V18.1717L2.90096 16.4969V29.856H0V37H37V29.856H34.099ZM7.14396 2.16797H9.95199V4.93516L7.14396 6.55644V2.16797ZM2.16811 11.9326L18.5 2.50335L34.8319 11.9326V14.4166L18.5 4.98741L2.16811 14.4166V11.9326ZM5.06893 15.2452L18.5 7.49077L31.9311 15.2452V29.856H17.096V17.416H7.46403V29.856H5.06893V15.2452ZM14.928 29.856H9.63192V19.584H14.928V29.856ZM34.832 34.832H2.16797V32.024H34.832V34.832Z" fill="#0A1243"/>
</svg>
