<svg width="36" height="41" viewBox="0 0 36 41" fill="none" xmlns="http://www.w3.org/2000/svg">
<path d="M34.566 29.8663C33.9298 28.781 32.5392 28.4085 31.4455 29.0305L26.5834 31.8363C26.2142 31.0211 25.4032 30.4967 24.5083 30.4944H17.7493L15.6424 29.7922C14.7692 29.5008 13.8548 29.3522 12.9342 29.3525H12.4483C10.896 29.3525 9.37265 29.7746 8.04169 30.5733L7.2212 31.0654H6.80831C6.80831 30.7501 6.55266 30.4944 6.23734 30.4944H1.6696C1.35429 30.4944 1.09863 30.7501 1.09863 31.0654V39.059C1.09863 39.3743 1.35429 39.6299 1.6696 39.6299H6.23734C6.55266 39.6299 6.80831 39.3743 6.80831 39.059H11.1084C11.2645 39.059 11.4204 39.0682 11.5754 39.0863L18.3818 39.8858C18.7094 39.924 19.0392 39.9433 19.369 39.9427C20.8765 39.9427 22.3574 39.5474 23.6644 38.7963L33.7294 32.9874C34.4398 32.5823 34.8763 31.826 34.8713 31.0083C34.8708 30.6076 34.7654 30.214 34.566 29.8663ZM5.66638 38.488H2.24057V31.6364H5.66638V38.488ZM33.1584 31.9982L23.0934 37.8097C21.7067 38.6056 20.1014 38.936 18.5132 38.7528L11.7067 37.9535C11.5082 37.9298 11.3083 37.9176 11.1084 37.917H6.80831V32.2073H7.37928C7.48299 32.2073 7.58447 32.1792 7.67341 32.1257L8.62911 31.5547C9.78247 30.8616 11.1028 30.4953 12.4483 30.4944H12.9342C13.7319 30.4944 14.5242 30.623 15.2808 30.8753L17.4763 31.6074C17.5346 31.6266 17.5954 31.6364 17.6567 31.6364H24.5083C25.1389 31.6364 25.6503 32.1477 25.6503 32.7783C25.6503 33.4089 25.1389 33.9202 24.5083 33.9202H15.9438V35.0622H24.5083C25.6614 35.0586 26.6299 34.1946 26.7649 33.0496L32.0143 30.0199C32.3675 29.8161 32.8027 29.8159 33.1559 30.0199C33.5091 30.2237 33.7269 30.6004 33.7272 31.0083C33.7302 31.4167 33.5128 31.795 33.1584 31.9982Z" fill="#0A1243" stroke="#0A1243" stroke-width="0.7"/>
<path d="M7.91667 26H27.0833C28.1418 26 29 25.1389 29 24.0769C29 23.0149 28.1418 22.1538 27.0833 22.1538V15.1026C27.0774 11.411 24.2361 8.34801 20.5669 8.07757C20.9041 7.20023 20.5456 6.20771 19.7264 5.75073L21.888 1.96154C22.0022 1.7631 22.0022 1.51833 21.8877 1.31989C21.7732 1.12144 21.562 0.999688 21.3333 1H13.6667C13.4383 0.999688 13.2268 1.12144 13.1126 1.31989C12.9981 1.51833 12.9978 1.7631 13.112 1.96154L15.2717 5.75323C14.4525 6.21021 14.094 7.20274 14.4316 8.08008C10.7636 8.35145 7.92384 11.4126 7.91667 15.1026V22.1538C6.8582 22.1538 6 23.0149 6 24.0769C6 25.1389 6.8582 26 7.91667 26ZM15.5833 7.41026C15.5833 7.05625 15.8694 6.76923 16.2222 6.76923H18.7778C19.1306 6.76923 19.4167 7.05625 19.4167 7.41026C19.4167 7.76426 19.1306 8.05128 18.7778 8.05128H16.2222C15.8694 8.05128 15.5833 7.76426 15.5833 7.41026ZM20.2318 2.28205L18.4072 5.48718H16.5928L14.7682 2.28205H20.2318ZM7.91667 23.4359C8.62231 23.4359 9.19444 22.8619 9.19444 22.1538V15.1026C9.19788 11.9178 11.7703 9.33678 14.9444 9.33333H20.0556C23.2297 9.33678 25.8021 11.9178 25.8056 15.1026V22.1538C25.8056 22.8619 26.3777 23.4359 27.0833 23.4359C27.4362 23.4359 27.7222 23.7229 27.7222 24.0769C27.7222 24.4309 27.4362 24.7179 27.0833 24.7179H7.91667C7.56384 24.7179 7.27778 24.4309 7.27778 24.0769C7.27778 23.7229 7.56384 23.4359 7.91667 23.4359Z" fill="#0A1243" stroke="#0A1243" stroke-width="0.7"/>
<path d="M20 17H21V19H20V17Z" fill="#0A1243" stroke="#0A1243" stroke-width="0.7"/>
<path d="M14 17H15V19H14V17Z" fill="#0A1243" stroke="#0A1243" stroke-width="0.7"/>
<path d="M17 17H18V19H17V17Z" fill="#0A1243" stroke="#0A1243" stroke-width="0.7"/>
</svg>
