<svg width="44" height="44" viewBox="0 0 44 44" fill="none" xmlns="http://www.w3.org/2000/svg">
<g clip-path="url(#clip0)">
<path d="M21.9995 9.0874C19.6262 9.0874 17.6953 11.0183 17.6953 13.3916C17.6953 15.7649 19.6262 17.6958 21.9995 17.6958C24.3728 17.6958 26.3037 15.7649 26.3037 13.3916C26.3037 11.0183 24.3728 9.0874 21.9995 9.0874ZM21.9995 14.8263C21.2084 14.8263 20.5648 14.1827 20.5648 13.3916C20.5648 12.6005 21.2084 11.9569 21.9995 11.9569C22.7906 11.9569 23.4342 12.6005 23.4342 13.3916C23.4342 14.1827 22.7906 14.8263 21.9995 14.8263Z" fill="#0A1243"/>
<path d="M43.9254 38.7631L38.1865 21.5464C37.9912 20.9606 37.443 20.5654 36.8254 20.5654H29.3457C30.6089 18.5709 32.043 16.718 32.043 13.3917C32.043 7.854 27.5377 3.34863 21.9999 3.34863C16.4621 3.34863 11.9569 7.854 11.9569 13.3917C11.9569 16.7377 13.4084 18.6018 14.6758 20.5654H7.17451C6.55688 20.5654 6.00877 20.9606 5.81343 21.5464L0.0745154 38.7631C-0.234602 39.6908 0.456594 40.6515 1.4356 40.6515H42.5643C43.5422 40.6514 44.235 39.6918 43.9254 38.7631ZM22 6.21809C25.9555 6.21809 29.1736 9.4362 29.1736 13.3917C29.1736 14.7542 28.7904 16.0794 28.0656 17.2238L22.0575 26.7098L15.9678 17.2757C15.2211 16.1192 14.8265 14.7761 14.8265 13.3917C14.8263 9.43611 18.0444 6.21809 22 6.21809ZM3.42617 37.7821L8.2086 23.4348H16.5281L20.8636 30.1514C21.4314 31.031 22.7207 31.0259 23.2811 30.141L27.5284 23.435H35.7914L40.5738 37.7822L3.42617 37.7821Z" fill="#0A1243" stroke="white" stroke-width="0.7"/>
</g>
<defs>
<clipPath id="clip0">
<rect width="44" height="44" fill="white"/>
</clipPath>
</defs>
</svg>
